<svg xmlns="http://www.w3.org/2000/svg" viewBox="0 0 120 120" width="120" height="120" role="img" aria-label="Bloom Matrix">
  <defs>
    <mask id="seed-hole">
      <rect width="120" height="120" fill="#fff"/>
      <circle cx="60" cy="60" r="14" fill="#000"/>
    </mask>
  </defs>
  <g mask="url(#seed-hole)" fill="none" stroke="#F2EFE9" stroke-width="8" stroke-linejoin="round">
    <path d="M23 6L35 6L52 23L52 52L23 52L6 35L6 23Z"/>
    <path d="M97 6L85 6L68 23L68 52L97 52L114 35L114 23Z"/>
    <path d="M23 114L35 114L52 97L52 68L23 68L6 85L6 97Z"/>
    <path d="M97 114L85 114L68 97L68 68L97 68L114 85L114 97Z"/>
  </g>
  <circle cx="60" cy="60" r="11" fill="#FF6B4A"/>
</svg>
